<svg width="25" height="24" viewBox="0 0 25 24" fill="none" xmlns="http://www.w3.org/2000/svg">
<path d="M18.7182 10.7443V3.80582C18.7182 2.56315 17.7085 1.57929 16.4917 1.57929H13.7216V0.802546C13.7216 0.36244 13.3591 4.32085e-06 12.919 4.32085e-06C12.4789 4.32085e-06 12.1165 0.362454 12.1165 0.802546V1.55326L6.60193 1.55344V0.802541C6.60193 0.362436 6.23948 0 5.79939 0C5.35928 0 4.99666 0.36245 4.99666 0.802541V1.55326L2.22653 1.55344C0.983863 1.55344 0 2.56314 0 3.77997V15.8965C0 17.1391 1.00971 18.123 2.22653 18.123H11.3139C11.7022 21.4111 14.5243 24 17.9158 24C21.5922 24 24.5695 21.0228 24.5695 17.3463C24.5954 13.9548 22.0322 11.1327 18.7184 10.7444L18.7182 10.7443ZM2.22635 3.15858H4.99666V3.90929C4.99666 4.3494 5.35911 4.71183 5.7992 4.71183C6.23931 4.71183 6.60175 4.34938 6.60175 3.90929V3.15858H12.1163V3.90929C12.1163 4.3494 12.4787 4.71183 12.9188 4.71183C13.3589 4.71183 13.7214 4.34938 13.7214 3.90929V3.15858H16.4917C16.8541 3.15858 17.1389 3.44337 17.1389 3.80582V6.52431H1.60499L1.60481 3.80582C1.60481 3.44337 1.88961 3.15858 2.22621 3.15858H2.22635ZM1.60494 15.9223V8.10355H17.1389V10.7444C14.1098 11.1068 11.702 13.5147 11.3396 16.5437L2.2263 16.5435C1.88968 16.5435 1.6049 16.2587 1.6049 15.9221L1.60494 15.9223ZM17.9415 22.4207C15.1454 22.4207 12.8671 20.1423 12.8671 17.3463C12.8672 14.5501 15.1456 12.2977 17.9415 12.2977C20.7376 12.2977 23.0159 14.5761 23.0159 17.3721C23.0159 20.1681 20.7376 22.4207 17.9415 22.4207Z" fill="black"/>
<path d="M20.1422 16.5436H18.7182V14.6277C18.7182 14.1876 18.3558 13.8252 17.9157 13.8252C17.4756 13.8252 17.1132 14.1876 17.1132 14.6277V17.3462C17.1132 17.7863 17.4756 18.1488 17.9157 18.1488H20.1422C20.5823 18.1488 20.9448 17.7863 20.9448 17.3462C20.9448 16.9061 20.5823 16.5437 20.1422 16.5437V16.5436Z" fill="black"/>
</svg>
