<svg width="24" height="21" viewBox="0 0 24 21" fill="none" xmlns="http://www.w3.org/2000/svg">
<path d="M18.1217 7.8744C17.934 9.39729 17.2443 10.8138 16.1617 11.9008L16.1485 11.9138C15.051 12.9913 13.5659 13.5817 12.0282 13.5514L12.0282 13.5513H12.0183H10.6471C10.3486 13.5376 10.0589 13.6578 9.85795 13.8805C9.38185 14.3819 8.89894 14.8867 8.41584 15.3918C8.14551 15.6744 7.87512 15.957 7.60583 16.2392V16.1275L6.72448 17.1668C6.62371 17.2856 6.47683 17.355 6.32144 17.3574C6.20536 17.3564 6.09422 17.3089 6.01318 17.2255L6.01298 17.2253C5.93122 17.1413 5.88678 17.0278 5.88982 16.9104L5.88999 16.9104V16.8974V14.1783C5.88999 14.0663 5.87955 13.8593 5.73534 13.678C5.59434 13.5008 5.40185 13.4425 5.27804 13.4171C2.91789 12.8062 1.48402 11.285 0.771396 8.96806C0.6589 8.53309 0.568334 8.09286 0.5 7.64897V6.39973C0.543652 6.0173 0.617787 5.6389 0.721554 5.2681L0.721559 5.26811L0.722123 5.26606C1.31068 3.12795 2.55722 1.61501 4.63737 0.820956C5.22532 0.603264 5.84813 0.49457 6.47508 0.500209V0.500229H6.47957L11.9058 0.500235L11.9082 0.500223C14.2484 0.48905 15.9785 1.51337 17.1877 3.4758C17.9814 4.79665 18.3103 6.34518 18.1217 7.87433L18.1217 7.8744Z" fill="#333333" stroke="#2D2D2D"/>
<path d="M21.8734 9.11013L21.9275 9.15879C24.2121 11.2485 23.97 15.107 21.444 16.8548C21.0352 17.1025 20.5986 17.3011 20.1435 17.4463L19.7954 17.5573V17.6389C19.7576 17.6722 19.7214 17.7106 19.6885 17.7553C19.5532 17.9394 19.5386 18.1417 19.5386 18.2755V19.9842V20.0036L19.5401 20.0229C19.5491 20.138 19.5053 20.2509 19.4212 20.3298C19.3573 20.3831 19.2751 20.4098 19.1916 20.4039C19.1259 20.3993 19.0638 20.3748 19.013 20.3344L18.9473 20.2687C18.7093 20.0307 18.4794 19.7888 18.2453 19.5426C18.1516 19.4439 18.0572 19.3446 17.9613 19.2445C17.8149 19.0915 17.6693 18.9405 17.5245 18.7904C17.243 18.4983 16.9643 18.2092 16.6876 17.9138C16.4905 17.695 16.2051 17.5762 15.9106 17.5909C15.3092 17.6045 14.7076 17.5749 14.1104 17.5023C12.9609 17.2997 12.0818 16.6793 11.4102 15.73H12.0039V15.7301L12.0101 15.73C15.3205 15.6893 17.7272 14.1101 19.2907 11.2767L19.2907 11.2767L19.2927 11.2731C19.8087 10.3195 20.1396 9.27842 20.2696 8.2047C20.8619 8.38494 21.4099 8.69323 21.8734 9.11013Z" fill="#2D2D2D" stroke="#2D2D2D"/>
<path d="M10.3563 7.80573H10.3568L9.00019 9.30081L6.88501 6.96974L6.88496 6.96969C6.64312 6.70323 6.5 6.33229 6.5 5.93646C6.5 5.54066 6.64311 5.16973 6.88499 4.90319L6.88501 4.90317C7.12537 4.63829 7.44033 4.5 7.75736 4.5C8.07429 4.5 8.38932 4.63829 8.62975 4.90321L9.00003 5.31121L9.37028 4.90317C9.61063 4.63829 9.92565 4.5 10.2426 4.5C10.5596 4.5 10.8746 4.63828 11.115 4.90321L11.115 4.90323C11.3569 5.16968 11.5 5.54063 11.5 5.93646C11.5 6.33226 11.3569 6.70318 11.115 6.96972L10.3563 7.80573Z" fill="white" stroke="#2D2D2D"/>
</svg>
