<svg width="24" height="23" viewBox="0 0 24 23" fill="none" xmlns="http://www.w3.org/2000/svg">
<path d="M18.1213 8.55679C17.9323 10.1717 17.2378 11.6699 16.1528 12.8167L16.1395 12.8305C15.0398 13.9668 13.5577 14.5844 12.0287 14.5526L12.0287 14.5525H12.0183H10.6477C10.3395 14.5378 10.0472 14.6693 9.84943 14.9001C9.37311 15.4281 8.89012 15.9596 8.40696 16.4913C8.1396 16.7855 7.87219 17.0798 7.60583 17.3735V17.2548L6.71646 18.3588C6.61233 18.488 6.46719 18.5565 6.32132 18.559C6.21389 18.5579 6.10534 18.5118 6.02199 18.4215L6.02179 18.4213C5.93675 18.3293 5.88642 18.1997 5.88984 18.0608L5.88999 18.0608V18.0485V15.1863C5.88999 15.0728 5.88028 14.8675 5.74295 14.6858C5.60458 14.5028 5.41189 14.4397 5.2837 14.412C2.93162 13.7709 1.49038 12.1709 0.773132 9.71528C0.659839 9.25432 0.56869 8.78771 0.5 8.31717V6.99537C0.5439 6.58916 0.618624 6.18733 0.723268 5.79372L0.723272 5.79372L0.723787 5.79175C1.31631 3.52594 2.57004 1.93209 4.64541 1.09815C5.23136 0.869791 5.85129 0.756034 6.47484 0.761937L6.47484 0.76196H6.47957L11.9058 0.761966L11.9083 0.761953C14.2362 0.750255 15.9672 1.82168 17.182 3.89722C17.9796 5.29436 18.3114 6.93507 18.1213 8.55673L18.1213 8.55679Z" stroke="#2D2D2D"/>
<path d="M21.9185 9.87738L21.8642 9.82603C21.4023 9.38864 20.8584 9.06614 20.2722 8.87685C20.1445 10.0072 19.8146 11.104 19.2978 12.1092L19.296 12.1127C18.5235 13.5863 17.538 14.7514 16.3155 15.5525C15.0905 16.3552 13.6541 16.7749 12.0106 16.7962L12.0042 16.7963V16.7963H11.3831C12.0626 17.83 12.9528 18.499 14.1144 18.7147C14.7101 18.7909 15.3101 18.822 15.9099 18.8077C16.2143 18.7918 16.5024 18.9219 16.6964 19.1486C16.9731 19.4596 17.252 19.7642 17.5337 20.0717C17.6785 20.2298 17.824 20.3887 17.9704 20.5497L21.9185 9.87738ZM21.9185 9.87738C24.2184 12.0918 23.9703 16.1881 21.4344 18.0352C21.0259 18.2957 20.5902 18.5042 20.1365 18.6566L19.7957 18.771V18.8516C19.7551 18.8879 19.7164 18.9303 19.6817 18.9799C19.5527 19.1647 19.5389 19.3659 19.5389 19.502V21.3006V21.3191L19.5402 21.3374C19.5505 21.4763 19.4994 21.6065 19.412 21.6928C19.3473 21.7497 19.269 21.7744 19.1936 21.7688C19.1343 21.7645 19.0743 21.7409 19.0228 21.6977L18.9565 21.6279C18.7184 21.3773 18.4883 21.1225 18.2541 20.8632C18.1605 20.7594 18.0662 20.655 17.9705 20.5499L21.9185 9.87738Z" stroke="#2D2D2D"/>
</svg>
