<svg width="23" height="24" viewBox="0 0 23 24" fill="none" xmlns="http://www.w3.org/2000/svg">
<path d="M11.156 11.4159C12.6699 11.4159 14.1217 10.8146 15.1921 9.74412C16.2626 8.67368 16.864 7.22178 16.864 5.70803C16.864 4.19415 16.2626 2.74237 15.1921 1.67176C14.1217 0.601325 12.6699 0 11.156 0C9.64215 0 8.19037 0.601325 7.11993 1.67176C6.0495 2.74233 5.448 4.19411 5.448 5.70803C5.44984 7.22126 6.05168 8.67201 7.12178 9.7421C8.19187 10.8122 9.64262 11.4142 11.156 11.4159Z" fill="#767676"/>
<path d="M0.920048 23.9999H22.3125C22.3122 21.0412 21.1368 18.2039 19.0447 16.1121C16.9526 14.0202 14.1153 12.8449 11.1564 12.8447C8.19779 12.8447 5.36045 14.0199 3.26818 16.1119C2.2289 17.1453 1.40489 18.3744 0.843934 19.7284C0.28298 21.0825 -0.00381873 22.5342 3.8394e-05 23.9999L0.920048 23.9999Z" fill="#767676"/>
</svg>
