<svg width="20" height="18" viewBox="0 0 20 18" fill="none" xmlns="http://www.w3.org/2000/svg">
<path d="M1.6961 17.2952C2.12083 17.2952 2.49447 17.092 2.73747 16.7814C3.84448 17.1724 5.29536 17.2952 7.00563 17.2952C8.71591 17.2952 10.1661 17.1724 11.2732 16.7814C11.4112 16.9579 11.5944 17.0934 11.8021 17.1823C10.8895 16.2804 10.324 15.0293 10.324 13.6447C10.324 11.8725 11.2525 10.3208 12.647 9.4389C11.1112 6.83129 8.3328 5.94386 8.3328 4.0213H8.99655V3.35756H8.3328L8.99655 0.702679H7.00541L6.71066 1.88281L6.34167 0.0390625H5.01431L5.67805 3.35746H5.01431V4.02121H5.67805C5.67805 6.67609 0.368292 7.33961 0.368292 13.313C0.368292 14.0173 0.491793 14.5953 0.715428 15.0798C0.501678 15.3154 0.368164 15.6247 0.368164 15.9678C0.368164 16.7012 0.962148 17.2952 1.69565 17.2952H1.6961ZM8.0545 11.6664C7.84612 11.5111 7.47837 11.4002 6.95011 11.3338C6.23661 11.2622 5.69037 11.1135 5.31075 10.8858C4.93114 10.6588 4.74202 10.3867 4.74202 10.0701C4.72677 9.69247 4.92052 9.34399 5.32215 9.02546C5.6354 8.77659 6.03101 8.62796 6.50352 8.57346L6.5034 8.00348H7.51815V8.60748C8.14864 8.72035 8.64116 8.99909 8.99028 9.45036L7.99802 9.79487C7.76039 9.4935 7.392 9.34085 6.89428 9.33561C6.60353 9.33561 6.36266 9.39661 6.1689 9.51948C5.97577 9.64161 5.8829 9.78698 5.89078 9.95548C5.89078 10.0782 5.97778 10.1877 6.15228 10.2847C6.32678 10.3816 6.60364 10.4506 6.98252 10.4919C7.88252 10.5987 8.5349 10.8071 8.9404 11.1157C9.34466 11.4244 9.54767 11.7781 9.54767 12.1764C9.54767 12.6151 9.30604 13.004 8.82293 13.3439C8.45656 13.6014 8.02056 13.76 7.51743 13.8224L7.51755 14.6405H6.50344V13.8008C5.62008 13.688 4.93183 13.3184 4.46319 12.658L5.58943 12.2677C5.93855 12.7629 6.42168 13.0104 7.03966 13.0104C7.39605 13.015 7.70466 12.9301 7.96491 12.7535C8.22579 12.5776 8.35579 12.3718 8.35579 12.1368C8.36317 11.979 8.26229 11.8223 8.05454 11.6663L8.0545 11.6664Z" fill="#E30808"/>
<path d="M15.3023 9.33105C12.9195 9.33105 10.988 11.2624 10.988 13.6453C10.988 16.0282 12.9194 17.9595 15.3023 17.9595C17.685 17.9595 19.6165 16.0282 19.6165 13.6453C19.6165 11.2624 17.6852 9.33105 15.3023 9.33105ZM18.2889 13.9768H12.3155V13.3131H18.2889V13.9768Z" fill="#E30808"/>
</svg>
