<svg width="25" height="29" viewBox="0 0 25 29" fill="none" xmlns="http://www.w3.org/2000/svg">
<path d="M21.8261 8.88329L22.3755 8.33393L22.5281 8.4866C22.8335 8.79195 23.2913 8.79195 23.566 8.4866L24.1153 7.93724C24.4207 7.63189 24.4207 7.17409 24.1153 6.89941L21.9175 4.70154C21.6121 4.39619 21.1543 4.39619 20.8796 4.70154L20.3303 5.2509C20.0249 5.55624 20.0249 6.01405 20.3303 6.28873L20.4523 6.41074L19.8722 6.99079C18.2543 5.73917 16.3618 4.88444 14.2554 4.54865V3.63282H15.2324C15.6293 3.63282 15.9651 3.29702 15.9651 2.90014V0.732679C15.9651 0.335775 15.6293 0 15.2324 0H9.37138C8.97448 0 8.6387 0.335797 8.6387 0.732679V2.90014C8.6387 3.29704 8.9745 3.63282 9.37138 3.63282H10.3483V4.54865C4.48733 5.46449 0 10.5623 0 16.698C0 23.4748 5.52521 29 12.302 29C19.0788 29 24.604 23.4748 24.604 16.698C24.6344 13.737 23.5659 11.0202 21.8261 8.88335L21.8261 8.88329ZM12.3325 26.8631C6.71572 26.8631 2.13682 22.2842 2.13682 16.6674C2.13682 11.0506 6.71572 6.47173 12.3325 6.47173C17.9493 6.47173 22.5282 11.0506 22.5282 16.6674C22.5282 22.2842 17.9493 26.8631 12.3325 26.8631Z" fill="#6A6A6A"/>
<path d="M11.9967 9.43292H12.6378C12.7294 9.43292 12.7905 9.3718 12.7905 9.28024V7.44857C12.7905 7.35701 12.7294 7.2959 12.6378 7.2959H11.9967C11.9051 7.2959 11.844 7.35701 11.844 7.44857V9.28024C11.844 9.3718 11.9051 9.43292 11.9967 9.43292Z" fill="#6A6A6A"/>
<path d="M9.24947 10.1347L9.82952 9.89048C9.89063 9.86003 9.95153 9.76847 9.92108 9.70736L9.21903 8.02837C9.18858 7.96726 9.09702 7.90636 9.03591 7.93681L8.45586 8.18104C8.39475 8.21149 8.33385 8.30306 8.3643 8.36417L9.06634 10.0432C9.09679 10.1043 9.15791 10.1652 9.24947 10.1347Z" fill="#6A6A6A"/>
<path d="M6.77666 11.814C6.83777 11.8751 6.92933 11.8751 6.99044 11.814L7.44825 11.3562C7.50936 11.2951 7.50936 11.2035 7.44825 11.1424L6.16615 9.86029C6.10504 9.79918 6.01348 9.79918 5.95237 9.86029L5.49456 10.3181C5.43345 10.3792 5.43345 10.4708 5.49456 10.5319L6.77666 11.814Z" fill="#6A6A6A"/>
<path d="M3.6326 13.6152L5.31159 14.3172C5.3727 14.3477 5.46426 14.3172 5.49471 14.2257L5.73895 13.6456C5.76939 13.5845 5.73895 13.4929 5.64738 13.4625L3.9684 12.7604C3.90729 12.73 3.81572 12.7604 3.78527 12.852L3.54104 13.432C3.51059 13.4929 3.5717 13.5847 3.6326 13.6152Z" fill="#6A6A6A"/>
<path d="M5.09796 17.0341V16.3929C5.09796 16.3013 5.03684 16.2402 4.94528 16.2402H3.11361C3.02205 16.2402 2.96094 16.3013 2.96094 16.3929V17.0341C2.96094 17.1256 3.02205 17.1867 3.11361 17.1867H4.94528C5.03684 17.1563 5.09796 17.0952 5.09796 17.0341Z" fill="#6A6A6A"/>
<path d="M5.76948 19.751L5.52525 19.1709C5.4948 19.1098 5.40323 19.0489 5.34212 19.0794L3.66314 19.7814C3.60202 19.8119 3.54112 19.9034 3.57157 19.9646L3.81581 20.5446C3.84626 20.6057 3.93782 20.6666 3.99893 20.6362L5.67792 19.9341C5.76948 19.9341 5.79993 19.8426 5.76948 19.751Z" fill="#6A6A6A"/>
<path d="M7.02096 21.582C6.95985 21.5209 6.86829 21.5209 6.80718 21.582L5.52508 22.8641C5.46397 22.9252 5.46397 23.0167 5.52508 23.0778L5.98288 23.5356C6.044 23.5968 6.13556 23.5968 6.19667 23.5356L7.47876 22.2536C7.53988 22.1924 7.53988 22.1009 7.47876 22.0398L7.02096 21.582Z" fill="#6A6A6A"/>
<path d="M9.89045 23.5057L9.3104 23.2614C9.24929 23.231 9.15773 23.2614 9.12728 23.353L8.42523 25.032C8.39478 25.0931 8.42523 25.1846 8.5168 25.2151L9.09684 25.4593C9.15796 25.4898 9.24952 25.4593 9.27997 25.3678L9.98201 23.6888C9.98201 23.5972 9.95156 23.5361 9.89045 23.5057Z" fill="#6A6A6A"/>
<path d="M12.6683 23.9023H12.0272C11.9356 23.9023 11.8745 23.9635 11.8745 24.055V25.8867C11.8745 25.9783 11.9356 26.0394 12.0272 26.0394H12.6683C12.7599 26.0394 12.821 25.9783 12.821 25.8867V24.055C12.821 23.9635 12.7599 23.9023 12.6683 23.9023Z" fill="#6A6A6A"/>
<path d="M15.6294 23.3223C15.599 23.2612 15.5074 23.2003 15.4463 23.2308L14.8663 23.475C14.8052 23.5054 14.7442 23.597 14.7747 23.6581L15.4767 25.3371C15.5072 25.3982 15.5988 25.4591 15.6599 25.4287L16.2399 25.1844C16.301 25.154 16.3619 25.0624 16.3315 25.0013L15.6294 23.3223Z" fill="#6A6A6A"/>
<path d="M17.8883 21.5517C17.8272 21.4906 17.7356 21.4906 17.6745 21.5517L17.2167 22.0095C17.1556 22.0706 17.1556 22.1622 17.2167 22.2233L18.4988 23.5054C18.5599 23.5665 18.6515 23.5665 18.7126 23.5054L19.1704 23.0476C19.2315 22.9865 19.2315 22.8949 19.1704 22.8338L17.8883 21.5517Z" fill="#6A6A6A"/>
<path d="M21.0323 19.7506L19.3533 19.0485C19.2922 19.0181 19.2007 19.0485 19.1702 19.1401L18.926 19.7201C18.8955 19.7812 18.926 19.8728 19.0175 19.9033L20.6965 20.6053C20.7576 20.6358 20.8492 20.6053 20.8796 20.5137L21.1239 19.9337C21.1543 19.8728 21.0932 19.7812 21.0323 19.7506Z" fill="#6A6A6A"/>
<path d="M21.5515 16.1787H19.7198C19.6283 16.1787 19.5671 16.2398 19.5671 16.3314V16.9725C19.5671 17.0641 19.6283 17.1252 19.7198 17.1252H21.5515C21.643 17.1252 21.7042 17.0641 21.7042 16.9725V16.3314C21.7042 16.2398 21.6124 16.1787 21.5515 16.1787Z" fill="#6A6A6A"/>
<path d="M18.8957 13.5847L19.1399 14.1647C19.1704 14.2258 19.2619 14.2867 19.3231 14.2563L21.002 13.5542C21.0631 13.5238 21.124 13.4322 21.0936 13.3711L20.8494 12.7911C20.8189 12.73 20.7274 12.6691 20.6662 12.6995L18.9873 13.4015C18.8957 13.432 18.8652 13.5236 18.8957 13.5847Z" fill="#6A6A6A"/>
<path d="M17.644 11.7524C17.7051 11.8136 17.7967 11.8136 17.8578 11.7524L19.1399 10.4704C19.201 10.4092 19.201 10.3177 19.1399 10.2566L18.6821 9.79876C18.621 9.73765 18.5294 9.73765 18.4683 9.79876L17.1862 11.0809C17.1251 11.142 17.1251 11.2335 17.1862 11.2946L17.644 11.7524Z" fill="#6A6A6A"/>
<path d="M14.7747 9.85962L15.3547 10.1039C15.4158 10.1343 15.5074 10.1039 15.5378 10.0123L16.2399 8.33331C16.2703 8.27219 16.2399 8.18063 16.1483 8.15018L15.5683 7.90595C15.5072 7.8755 15.4156 7.90595 15.3851 7.99751L14.6831 9.67649C14.6831 9.73739 14.7136 9.82896 14.7747 9.85962Z" fill="#6A6A6A"/>
<path d="M16.4536 12.0888C16.3925 12.0277 16.3009 12.0277 16.2398 12.0888L13.2788 15.0498C13.0041 14.8667 12.6683 14.7751 12.3019 14.7751C11.2333 14.7751 10.3787 15.6299 10.3787 16.6983C10.3787 17.7669 11.2334 18.6215 12.3019 18.6215C13.3703 18.6215 14.2251 17.7668 14.2251 16.6983C14.2251 16.3321 14.1335 15.9963 13.9504 15.7214L16.9114 12.7604C16.9725 12.6993 16.9725 12.6077 16.9114 12.5466L16.4536 12.0888Z" fill="#6A6A6A"/>
</svg>
