<svg width="11" height="12" viewBox="0 0 11 12" fill="none" xmlns="http://www.w3.org/2000/svg">
<path d="M0.726503 0.853516C0.570841 0.853516 0.413046 0.913955 0.294606 1.03247C0.058048 1.26903 0.058048 1.65969 0.294606 1.89608L4.58537 6.18685L0.294606 10.4776C0.058048 10.7142 0.058048 11.1048 0.294606 11.3412C0.409188 11.4558 0.569261 11.5202 0.726503 11.5202C0.883745 11.5202 1.04365 11.456 1.1584 11.3412L5.44916 7.05046L9.73993 11.3412C9.85451 11.4558 10.0146 11.5202 10.1718 11.5202C10.3264 11.5202 10.4816 11.4634 10.6037 11.3412C10.8403 11.1047 10.8403 10.714 10.6037 10.4776L6.31296 6.18685L10.6037 1.89608C10.8403 1.65953 10.8403 1.26887 10.6037 1.03247C10.3672 0.796074 9.97651 0.795913 9.74011 1.03247L5.44935 5.32324L1.15858 1.03247C1.0403 0.91419 0.882516 0.853516 0.726684 0.853516H0.726503Z" fill="white"/>
</svg>
