<svg width="15" height="20" viewBox="0 0 15 20" fill="none" xmlns="http://www.w3.org/2000/svg">
<path d="M0.627395 5.5322e-06C0.461659 -0.000692003 0.302477 0.0645983 0.184716 0.181366C0.0671092 0.298134 0.0005662 0.456755 5.48584e-06 0.622509V19.3725C-0.000692049 19.5392 0.0651554 19.6991 0.183041 19.817C0.300787 19.9347 0.460802 20.0007 0.627362 20H8.65486V15.0636C8.65444 14.7421 8.89774 14.473 9.21764 14.4411C9.23759 14.4401 9.2574 14.4401 9.27749 14.4411L14.2139 14.4409V0.622726C14.2132 0.457826 14.1474 0.299902 14.0307 0.183262C13.9141 0.0666338 13.7562 0.000923174 13.5913 0.000226746L0.627395 5.5322e-06ZM7.10953 3.08718C9.74178 3.08718 11.8899 5.23393 11.8899 7.86611C11.8899 10.4983 9.74185 12.6465 7.10953 12.6465C4.47728 12.6465 2.32918 10.4984 2.32918 7.86611C2.32918 5.23379 4.47721 3.08718 7.10953 3.08718ZM7.10953 4.33718C5.15278 4.33718 3.58053 5.90943 3.58053 7.86618C3.58053 9.82293 5.15278 11.3952 7.10953 11.3952C9.06628 11.3952 10.6385 9.82293 10.6385 7.86618C10.6385 5.90943 9.06628 4.33718 7.10953 4.33718ZM9.00167 6.1865H9.00153C9.17857 6.18497 9.34793 6.25849 9.46764 6.38893C9.58734 6.51923 9.64607 6.69431 9.62933 6.8705C9.61273 7.0467 9.52205 7.20755 9.38003 7.31318L6.65292 9.41657C6.52374 9.51632 6.36051 9.56166 6.19828 9.54268C6.03617 9.52371 5.88773 9.4421 5.78507 9.31514L4.73399 8.03222C4.61932 7.90498 4.56198 7.73646 4.57509 7.56572C4.58821 7.3951 4.6708 7.23731 4.80347 7.12918C4.93628 7.02092 5.10746 6.9721 5.2774 6.99372C5.44718 7.01534 5.60064 7.10574 5.70208 7.24358L6.3674 8.05536L8.6135 6.32072C8.72399 6.23353 8.86085 6.18624 9.00161 6.18651L9.00167 6.1865ZM9.90499 15.6908V19.6311L13.8453 15.6908H9.90499Z" fill="#618198"/>
</svg>
