<svg width="20" height="20" viewBox="0 0 20 20" fill="none" xmlns="http://www.w3.org/2000/svg">
<path d="M1.14247 0C0.850599 0 0.554735 0.113323 0.33266 0.335542C-0.110887 0.779089 -0.110887 1.51157 0.33266 1.95482L8.37784 10L0.33266 18.0452C-0.110887 18.4887 -0.110887 19.2212 0.33266 19.6645C0.547502 19.8793 0.847638 20 1.14247 20C1.4373 20 1.73711 19.8797 1.95227 19.6645L9.99746 11.6193L18.0426 19.6645C18.2575 19.8793 18.5576 20 18.8524 20C19.1423 20 19.4332 19.8936 19.6623 19.6645C20.1058 19.2209 20.1058 18.4884 19.6623 18.0452L11.6171 10L19.6623 1.95482C20.1058 1.51127 20.1058 0.778787 19.6623 0.335542C19.2187 -0.107702 18.4862 -0.108004 18.043 0.335542L9.9978 8.38073L1.95261 0.335542C1.73084 0.113765 1.43499 0 1.14281 0H1.14247Z" fill="white"/>
</svg>
