<svg width="14" height="17" viewBox="0 0 14 17" fill="none" xmlns="http://www.w3.org/2000/svg">
<path d="M12.0116 3.41393L11.5572 14.5913C11.5427 14.9461 11.2437 15.2395 10.8962 15.2395H2.96746C2.62006 15.2395 2.32108 14.9454 2.30652 14.5913L1.85212 3.41393C1.84365 3.20365 1.67047 3.04031 1.46532 3.04917C1.26034 3.05785 1.10098 3.23536 1.10945 3.44564L1.56385 14.623C1.59479 15.3854 2.22165 16.0013 2.96745 16.0013H10.8962C11.6417 16.0013 12.2687 15.3863 12.2998 14.623L12.7542 3.44564C12.7627 3.23536 12.6033 3.05785 12.3984 3.04917C12.1932 3.04031 12.02 3.20365 12.0116 3.41393H12.0116Z" fill="#FC3C00"/>
<path d="M6.68408 4.95332V13.5883C6.68408 13.7987 6.85052 13.9693 7.05585 13.9693C7.261 13.9693 7.42744 13.7987 7.42744 13.5883V4.95332C7.42744 4.74286 7.261 4.57227 7.05585 4.57227C6.85052 4.57227 6.68408 4.74286 6.68408 4.95332Z" fill="#FC3C00"/>
<path d="M3.83464 4.96448L4.08248 13.5994C4.08836 13.8099 4.25964 13.9753 4.46479 13.9691C4.66994 13.9629 4.83137 13.7874 4.82532 13.5771L4.57765 4.94215C4.5716 4.7317 4.40032 4.56623 4.19517 4.57243C3.99001 4.57864 3.82858 4.75419 3.83464 4.96448Z" fill="#FC3C00"/>
<path d="M9.28568 4.94215L9.03801 13.5771C9.03196 13.7874 9.19338 13.9629 9.39854 13.9691C9.60369 13.9753 9.77497 13.8099 9.78084 13.5994L10.0287 4.96448C10.0347 4.75419 9.87331 4.57863 9.66816 4.57243C9.46301 4.56623 9.29173 4.7317 9.28568 4.94215Z" fill="#FC3C00"/>
<path d="M0.737558 2.15842H13.1263C13.3316 2.15842 13.4979 1.98782 13.4979 1.77754C13.4979 1.56708 13.3316 1.39648 13.1263 1.39648H0.737558C0.532233 1.39648 0.365967 1.56708 0.365967 1.77754C0.365967 1.98782 0.532233 2.15842 0.737558 2.15842Z" fill="#FC3C00"/>
<path d="M4.79919 1.79226L5.06432 1.11271C5.13484 0.931834 5.37974 0.761765 5.56899 0.761765H8.29459C8.48505 0.761765 8.72823 0.930596 8.79925 1.11271L9.06438 1.79226L9.7547 1.50916L9.4894 0.829797C9.30551 0.358232 8.78908 0 8.2946 0H5.56899C5.07587 0 4.55758 0.359447 4.37419 0.829797L4.10889 1.50916L4.79919 1.79226Z" fill="#FC3C00"/>
</svg>
