<svg width="103" height="136" viewBox="0 0 103 136" fill="none" xmlns="http://www.w3.org/2000/svg">
<path d="M89.8523 16.9956H13.4493C6.47738 16.9956 0.666748 22.6605 0.666748 29.7781V33.9899H102.489V29.7781C102.635 22.6605 96.8252 16.9956 89.8533 16.9956H89.8523ZM67.6286 8.57095L69.5172 21.9342H33.785L35.6726 8.57095H67.6282H67.6286ZM68.6444 0.000259238H34.6553C31.1689 0.000259238 27.8284 2.90506 27.3926 6.24561L24.9235 23.9665C24.4878 27.4528 26.9569 30.2118 30.4433 30.2118H72.8572C76.3435 30.2118 78.8128 27.307 78.377 23.9665L75.9068 6.39138C75.3263 2.90584 72.1305 0 68.6442 0L68.6444 0.000259238Z" fill="white"/>
<path d="M92.035 42.4199H11.2745C6.62587 42.4199 3.14057 46.1962 3.57607 50.8446L10.5479 127.248C10.9836 131.896 15.1966 135.672 19.8441 135.672H83.4649C88.1135 135.672 92.3253 131.896 92.7611 127.248L99.7329 50.8446C100.169 46.197 96.6831 42.4207 92.0345 42.4207L92.035 42.4199ZM34.6602 118.823H21.8777L17.6659 59.4145H34.6604L34.6602 118.823ZM60.0794 118.823H43.2298V59.4145H60.2244V118.823H60.0794ZM81.2858 118.823H68.5033L68.5043 59.4145H85.4989L81.2858 118.823Z" fill="white"/>
</svg>
