<svg width="24" height="24" viewBox="0 0 24 24" fill="none" xmlns="http://www.w3.org/2000/svg">
<circle cx="12" cy="12" r="12" fill="#3D3D3D"/>
<path d="M15.8944 16.3334C15.8944 16.8401 15.481 17.2267 14.9877 17.2267H7.81437C7.30771 17.2267 6.90771 16.8267 6.90771 16.3334V9.13341C6.90771 8.64008 7.32104 8.24008 7.81437 8.24008H11.481L12.641 7.08008H7.81437C6.66771 7.08008 5.73438 8.00008 5.73438 9.13341V16.3334C5.73438 17.4801 6.66771 18.4001 7.81437 18.4001H15.001C16.1477 18.4001 17.081 17.4801 17.081 16.3334V11.4934L15.921 12.6534V16.3334H15.8944Z" fill="white"/>
<path d="M18.1331 7.62673L16.5064 6.0134C16.3331 5.84007 16.0931 5.7334 15.8531 5.7334C15.5998 5.7334 15.3731 5.82673 15.1998 6.00007L9.19978 12.0001C9.03978 12.1601 8.94645 12.3734 8.93312 12.6001L8.82645 14.3201C8.81312 14.5867 8.90645 14.8534 9.09312 15.0401C9.26645 15.2134 9.50645 15.3067 9.74645 15.3067C9.75978 15.3067 9.78645 15.3067 9.79978 15.3067L11.5331 15.2001C11.7598 15.1867 11.9731 15.0934 12.1331 14.9334L18.1198 8.94673C18.2931 8.7734 18.3864 8.5334 18.3864 8.2934C18.3998 8.04007 18.3064 7.80007 18.1331 7.62673ZM14.3064 8.54673L15.5998 9.84007L12.5998 12.8267L11.3064 11.5334L14.3064 8.54673ZM11.3731 14.0534L9.99978 14.1334L10.0798 12.7601L10.4664 12.3734L11.7598 13.6667L11.3731 14.0534ZM16.4131 9.00007L15.1331 7.72007L15.8531 7.00007L17.1464 8.2934L16.4131 9.00007Z" fill="white"/>
</svg>
