<svg width="14" height="14" viewBox="0 0 14 14" fill="none" xmlns="http://www.w3.org/2000/svg">
<path d="M10.8944 11.3334C10.8944 11.8401 10.481 12.2267 9.98771 12.2267H2.81437C2.30771 12.2267 1.90771 11.8267 1.90771 11.3334V4.13341C1.90771 3.64008 2.32104 3.24008 2.81437 3.24008H6.48104L7.64104 2.08008H2.81437C1.66771 2.08008 0.734375 3.00008 0.734375 4.13341V11.3334C0.734375 12.4801 1.66771 13.4001 2.81437 13.4001H10.001C11.1477 13.4001 12.081 12.4801 12.081 11.3334V6.49341L10.921 7.65341V11.3334H10.8944Z" fill="white"/>
<path d="M13.1331 2.62673L11.5064 1.0134C11.3331 0.840065 11.0931 0.733398 10.8531 0.733398C10.5998 0.733398 10.3731 0.826732 10.1998 1.00007L4.19978 7.00007C4.03978 7.16007 3.94645 7.3734 3.93312 7.60007L3.82645 9.32007C3.81312 9.58673 3.90645 9.8534 4.09312 10.0401C4.26645 10.2134 4.50645 10.3067 4.74645 10.3067C4.75978 10.3067 4.78645 10.3067 4.79978 10.3067L6.53311 10.2001C6.75978 10.1867 6.97311 10.0934 7.13312 9.9334L13.1198 3.94673C13.2931 3.7734 13.3864 3.5334 13.3864 3.2934C13.3998 3.04007 13.3064 2.80007 13.1331 2.62673ZM9.30645 3.54673L10.5998 4.84007L7.59978 7.82673L6.30645 6.5334L9.30645 3.54673ZM6.37311 9.0534L4.99978 9.1334L5.07978 7.76007L5.46645 7.3734L6.75978 8.66673L6.37311 9.0534ZM11.4131 4.00007L10.1331 2.72007L10.8531 2.00007L12.1464 3.2934L11.4131 4.00007Z" fill="white"/>
</svg>
