<svg width="30" height="30" viewBox="0 0 30 30" fill="none" xmlns="http://www.w3.org/2000/svg">
<path d="M14.4876 16.223C15.4547 17.1902 16.7468 17.7226 18.1257 17.7226C19.5047 17.7226 20.7969 17.1902 21.7639 16.223L25.6667 12.3202C25.4638 12.3176 25.2598 12.3094 25.052 12.2874C23.3402 12.1061 21.6678 11.2763 20.3429 9.95079C19.0175 8.62593 18.1881 6.95301 18.0065 5.24165C17.9846 5.03481 17.9744 4.8308 17.9716 4.62891L14.0704 8.52958C13.1033 9.49672 12.5708 10.7888 12.5708 12.1677C12.5708 13.5467 13.1033 14.8385 14.0704 15.8059L14.4876 16.223Z" fill="#0B4268"/>
<path d="M3.57968 21.1734V15.1318C3.57968 14.6624 3.96054 14.2816 4.42992 14.2816C4.8993 14.2816 5.28016 14.6624 5.28016 15.1318V21.1734L6.97665 19.4771C8.87624 17.5768 8.87624 14.4856 6.97665 12.5856L4.4301 10.0391L1.88355 12.5856C-0.0160353 14.4857 -0.0160353 17.5772 1.88355 19.4771L3.57968 21.1734Z" fill="#0B4268"/>
<path d="M21.7672 5.47272C23.2318 4.00877 25.69 4.08481 27.2475 5.64273C27.6175 6.01226 27.5752 6.63871 27.1209 6.94964C26.779 7.18387 26.3136 7.1043 26.0156 6.81552C25.1201 5.94824 23.7624 5.88259 22.9693 6.6748C22.1684 7.47596 22.2446 8.85583 23.1393 9.75074L23.1416 9.7531C23.3603 9.9734 23.6054 10.1687 23.896 10.2775C25.5554 10.8966 27.285 10.7009 28.3851 9.60149C30.0354 7.95057 29.6529 4.88243 27.5318 2.76137C26.2986 1.52856 24.7449 0.882812 23.3362 0.882812C22.3219 0.882812 21.3828 1.21715 20.6914 1.90804C19.283 3.31699 19.3597 5.75679 20.7297 7.76071C20.7956 6.91494 21.1382 6.102 21.7672 5.47269L21.7672 5.47272Z" fill="#0B4268"/>
<path d="M14.2283 16.2809C13.8495 15.9024 13.2366 15.9024 12.8576 16.2809L1.67439 27.4641C1.29636 27.8426 1.29636 28.4558 1.67439 28.8343C1.86399 29.0235 2.11168 29.1179 2.35961 29.1179C2.6073 29.1179 2.85546 29.0235 3.04483 28.8343L14.228 17.6511C14.6063 17.2729 14.6063 16.6597 14.2283 16.2812L14.2283 16.2809Z" fill="#0B4268"/>
</svg>
