<svg width="20" height="20" viewBox="0 0 20 20" fill="none" xmlns="http://www.w3.org/2000/svg">
<path d="M10.8868 0C7.51901 0 4.59343 1.83113 3.03589 4.5253C3.73047 4.54629 4.38295 4.84095 4.84601 5.32515C6.10896 3.30448 8.33999 1.97858 10.8657 1.97858C14.8017 1.97858 17.9799 5.17789 17.9799 9.09276C17.9799 11.6396 16.6328 13.8917 14.6122 15.1335C14.9699 15.4703 15.2225 15.8912 15.3489 16.3543C15.391 16.5437 15.412 16.7542 15.433 16.9436C18.1481 15.365 19.9583 12.4394 19.9583 9.09276C20.0005 4.08337 15.9171 7.51656e-05 10.8867 7.51656e-05L10.8868 0Z" fill="#618198"/>
<path d="M14.5912 6.41983C14.2124 6.04105 13.5809 6.04105 13.181 6.41983L10.3184 9.28234L8.99239 7.95629C8.61361 7.5775 7.98213 7.5775 7.58219 7.95629C7.2034 8.33508 7.2034 8.96655 7.58219 9.3665L9.62383 11.4081C9.81323 11.5975 10.0659 11.7028 10.3184 11.7028C10.5709 11.7028 10.8236 11.5975 11.013 11.4081L14.5911 7.83004C14.97 7.43009 14.97 6.81978 14.5911 6.41983H14.5912Z" fill="#F8AD61"/>
<path d="M13.2651 16.2071L10.4447 14.7548C10.0448 14.5442 9.56073 14.6495 9.28707 15.0073L8.25568 16.3333C7.24542 15.7861 6.4877 15.2809 5.60369 14.3969C4.65657 13.4498 4.15135 12.6709 3.64631 11.7028L4.95124 10.6714C5.30904 10.3977 5.41429 9.91369 5.20377 9.51374L3.75143 6.71437C3.4989 6.23031 2.86742 6.06193 2.40436 6.37757L0.615218 7.57738C0.194298 7.85105 -0.037229 8.3351 0.00490436 8.84033C0.0470415 9.34551 0.110174 9.998 0.215443 10.4399C0.741641 12.4185 2.00444 14.5022 3.75141 16.2491C5.5194 17.9961 7.58213 19.2589 9.58168 19.7851C10.0238 19.9114 10.6762 19.9745 11.1813 19.9957C11.6865 20.0378 12.1705 19.7851 12.4442 19.3642L13.6019 17.5541C13.9176 17.091 13.7492 16.4597 13.2651 16.207L13.2651 16.2071Z" fill="#618198"/>
</svg>
