<svg width="23" height="26" viewBox="0 0 23 26" fill="none" xmlns="http://www.w3.org/2000/svg">
<path d="M7.96563 23.8927L7.97565 20.0303C7.97821 19.0444 8.74515 18.2473 9.68866 18.25L13.1377 18.2599C13.5907 18.2612 14.0248 18.4506 14.3443 18.7863C14.6638 19.122 14.8426 19.5766 14.8414 20.0501L14.8314 23.9124C14.8275 24.3223 14.9803 24.7169 15.2559 25.0086C15.5315 25.3003 15.9071 25.465 16.2994 25.4661L18.6524 25.4729C19.7514 25.479 20.8075 25.0279 21.5877 24.2192C22.3679 23.4104 22.808 22.3105 22.811 21.1621L22.8396 10.1588C22.842 9.23115 22.4507 8.35008 21.7713 7.75296L13.784 1.0494C12.3946 -0.125931 10.3994 -0.0938438 9.04541 1.12561L1.2063 7.69387C0.49168 8.26944 0.0631675 9.15076 0.0396605 10.0933L0.0111554 21.0853C0.00494829 23.4789 1.85677 25.4246 4.14731 25.4312L6.44664 25.4378C7.26136 25.4402 7.92526 24.7552 7.93337 23.9039L7.96563 23.8927Z" fill="#2D2D2D"/>
</svg>
