<svg width="23" height="25" viewBox="0 0 23 25" fill="none" xmlns="http://www.w3.org/2000/svg">
<path d="M18.6524 24.0508L16.2994 24.0444C15.9071 24.0433 15.5315 23.8869 15.2559 23.6098C14.9803 23.3326 14.8275 22.9578 14.8314 22.5684L14.8414 18.8991C14.8426 18.4493 14.6638 18.0175 14.3443 17.6985C14.0248 17.3796 13.5907 17.1997 13.1377 17.1985L9.68866 17.1891C8.74515 17.1865 7.97821 17.9437 7.97565 18.8804L18.6524 24.0508ZM18.6524 24.0508C19.7514 24.0566 20.8075 23.6281 21.5877 22.8598C22.3679 22.0915 22.8081 21.0465 22.811 19.9555L22.8396 9.50243C22.842 8.62115 22.4507 7.78414 21.7713 7.21688L18.6524 24.0508ZM7.47565 18.879L7.46662 22.1871L7.43699 22.1968L7.4334 22.5552C7.42808 23.0859 6.99142 23.519 6.448 23.5175L4.14867 23.5112C2.13083 23.5057 0.50571 21.8783 0.511154 19.884L0.539642 9.44771C0.560799 8.70624 0.916358 8.01216 1.51014 7.55783L1.51019 7.55791L1.51769 7.55194L9.3568 1.31209L9.36374 1.30657L9.37047 1.30081C10.5417 0.298719 12.2687 0.272243 13.4708 1.23824L13.4723 1.23944L21.455 7.60414C22.0183 8.07652 22.3416 8.77103 22.3396 9.50106L22.311 19.9542C22.3084 20.9111 21.9224 21.8285 21.2369 22.5035C20.5512 23.1787 19.6224 23.5559 18.6551 23.5508L18.6538 23.5508L16.3007 23.5444C16.0405 23.5437 15.7921 23.4399 15.6104 23.2572C15.4288 23.0746 15.3288 22.8284 15.3314 22.5734L15.3314 22.5698L15.3414 18.9005C15.343 18.3169 15.111 17.7573 14.6975 17.3447C14.2842 16.9321 13.7235 16.7001 13.139 16.6985L9.69003 16.6891C8.47382 16.6858 7.47897 17.6628 7.47565 18.879Z" stroke="#2D2D2D"/>
</svg>
