<svg width="16" height="26" viewBox="0 0 16 26" fill="none" xmlns="http://www.w3.org/2000/svg">
<path d="M11.7763 2.4117L11.7763 2.41174C12.8244 3.51497 13.4024 4.98184 13.4024 6.54944V11.3481H12.8908V10.3841V6.5493C12.8908 5.15639 12.3749 3.8449 11.4341 2.84848L11.4331 2.84743C10.4897 1.85414 9.22599 1.30203 7.88085 1.30203C5.09198 1.30203 2.86603 3.68252 2.86603 6.5493V10.3841V11.378L3.66404 10.7856C4.89452 9.87228 6.34735 9.38303 7.88085 9.38303C9.41445 9.38303 10.867 9.87259 12.0921 10.7851L12.8847 11.3755L13.5116 12.1602C14.64 13.5725 15.2616 15.3241 15.2616 17.1785C15.2616 21.499 11.9243 24.9741 7.88079 24.9741C3.83728 24.9741 0.5 21.499 0.5 17.1785C0.5 15.3243 1.12163 13.5722 2.24564 12.1594L2.35437 12.0227V11.8481V6.54944C2.35437 3.30608 4.85977 0.710938 7.88085 0.710938C9.34757 0.710938 10.7293 1.3094 11.7763 2.4117ZM8.88474 19.9526V18.0173C9.8343 17.6059 10.482 16.6269 10.482 15.5133C10.482 14.0418 9.33966 12.8016 7.88085 12.8016C6.4233 12.8016 5.27454 14.0403 5.27454 15.5133C5.27454 16.6283 5.9275 17.6064 6.87696 18.0173V19.9526C6.87696 20.4959 7.30382 20.983 7.88085 20.983C8.45789 20.983 8.88474 20.4959 8.88474 19.9526Z" stroke="#2D2D2D"/>
</svg>
