<svg width="16" height="24" viewBox="0 0 16 24" fill="none" xmlns="http://www.w3.org/2000/svg">
<path d="M11.7852 2.11712L11.7853 2.11716C12.8303 3.16218 13.4024 4.54662 13.4024 6.02157V10.5553H12.8908V9.66455V6.02145C12.8908 4.68389 12.369 3.42891 11.4251 2.4793L11.4241 2.47827C10.4785 1.53244 9.21749 1.01153 7.88085 1.01153C5.11584 1.01153 2.86603 3.26093 2.86603 6.02145V9.66455V10.6289L3.65417 10.0732C4.88487 9.20533 6.34116 8.73849 7.88085 8.73849C9.42065 8.73849 10.8766 9.20563 12.102 10.0727L12.8908 10.6309V10.6294L13.5196 11.3771C14.6447 12.715 15.2616 14.3701 15.2616 16.1192C15.2616 20.1866 11.9482 23.5 7.88079 23.5C3.81343 23.5 0.5 20.1866 0.5 16.1192C0.5 14.3703 1.11694 12.7146 2.2377 11.3763L2.35437 11.237V11.0553V6.02157C2.35437 2.97746 4.8359 0.5 7.88085 0.5C9.35608 0.5 10.7405 1.07215 11.7852 2.11712ZM8.88474 18.7546V16.9389C9.82408 16.5477 10.482 15.6175 10.482 14.5373C10.482 13.1023 9.31581 11.9361 7.88085 11.9361C6.4472 11.9361 5.27454 13.1007 5.27454 14.5373C5.27454 15.6189 5.93773 16.5482 6.87696 16.9389V18.7546C6.87696 19.3078 7.32767 19.7585 7.88085 19.7585C8.43403 19.7585 8.88474 19.3078 8.88474 18.7546Z" fill="#2D2D2D" stroke="#2D2D2D"/>
</svg>
