<svg width="12" height="12" viewBox="0 0 12 12" fill="none" xmlns="http://www.w3.org/2000/svg">
<path d="M5.98037 0.823138C5.89781 0.740586 5.78208 0.688955 5.65641 0.688996C5.4055 0.688996 5.19833 0.896173 5.19841 1.147L5.19841 5.69804L0.647368 5.69804C0.39646 5.69804 0.189283 5.90522 0.189369 6.15604C0.189369 6.27757 0.240121 6.3966 0.323511 6.47999C0.406901 6.56338 0.525716 6.61417 0.647465 6.61413L5.19851 6.61413L5.19851 11.1652C5.19851 11.2867 5.24926 11.4057 5.33265 11.4891C5.41462 11.5711 5.52701 11.6233 5.6566 11.6233C5.90751 11.6233 6.11469 11.4161 6.1146 11.1653V6.61423L10.6656 6.61423C10.9166 6.61423 11.1237 6.40705 11.1236 6.15623C11.1236 5.90541 10.9165 5.69815 10.6656 5.69823L6.1146 5.69823L6.1146 1.14719C6.1146 1.02173 6.06301 0.905781 5.98037 0.823138Z" fill="white"/>
</svg>
