<svg width="20" height="19" viewBox="0 0 20 19" fill="none" xmlns="http://www.w3.org/2000/svg">
<path d="M0.572217 0.000551263C0.391831 0.00731082 0.224298 0.0955827 0.116807 0.240712C0.009449 0.385709 -0.0262012 0.571795 0.0201847 0.746203L1.99861 8.16163L10.7349 9.49881L1.99997 10.8348L0.0203542 18.2523C-0.0195408 18.4006 -0.000322021 18.5587 0.0738994 18.6931C0.148254 18.8276 0.271647 18.9282 0.418493 18.9735C0.565214 19.0189 0.723864 19.0056 0.861044 18.9364L18.6743 10.0298C18.8062 9.96351 18.9085 9.85072 18.9617 9.71301C19.0148 9.57543 19.0148 9.42301 18.9617 9.28542C18.9085 9.14785 18.8062 9.03492 18.6743 8.96865L0.861044 0.0620021C0.77158 0.0174688 0.672175 -0.00360517 0.572373 0.000503761L0.572217 0.000551263Z" fill="white"/>
</svg>
