<svg width="36" height="32" viewBox="0 0 36 32" fill="none" xmlns="http://www.w3.org/2000/svg">
<path d="M16.1109 1.43497C16.7334 -0.356178 19.2666 -0.356177 19.8891 1.43497L22.6969 9.51278C22.9764 10.317 23.7346 10.8561 24.586 10.8561H33.3697C35.3397 10.8561 36.123 13.4039 34.4934 14.5106L27.6244 19.1758C26.8758 19.6842 26.5618 20.6321 26.859 21.4869L29.5365 29.1901C30.1688 31.0092 28.1169 32.5833 26.5237 31.5012L19.1237 26.4754C18.4454 26.0148 17.5546 26.0148 16.8763 26.4754L9.47632 31.5012C7.88311 32.5832 5.8312 31.0092 6.46351 29.1901L9.14105 21.4869C9.43818 20.6321 9.12425 19.6842 8.37558 19.1758L1.50662 14.5106C-0.123013 13.4039 0.660344 10.8561 2.63028 10.8561H11.414C12.2654 10.8561 13.0236 10.317 13.3031 9.51278L16.1109 1.43497Z" fill="#C4C4C4"/>
</svg>
