<svg width="24" height="24" viewBox="0 0 24 24" fill="none" xmlns="http://www.w3.org/2000/svg">
<path d="M11.9998 0C8.81719 0 5.76502 1.26428 3.5146 3.51477C1.26428 5.7651 0 8.81745 0 12C0 15.1825 1.26428 18.2348 3.51478 20.4852C5.7651 22.7357 8.81745 24 12 24C15.1825 24 18.2348 22.7357 20.4852 20.4852C22.7357 18.2349 24 15.1825 24 12C24 9.89367 23.4455 7.82429 22.3924 6.00004C21.339 4.1758 19.8243 2.6609 18 1.60765C16.1756 0.554396 14.1063 0 12 0L11.9998 0ZM11.9998 4.43183C14.2101 4.43183 15.0739 6.09823 15.0739 8.15386C15.0739 10.2095 13.6977 11.8759 11.9998 11.8759C10.3021 11.8759 8.92571 10.2095 8.92571 8.15386C8.92571 6.0984 9.89114 4.43183 11.9998 4.43183ZM17.5828 17.6429C17.5828 18.7058 15.0832 19.5674 11.9998 19.5674C8.91645 19.5674 6.41687 18.7058 6.41687 17.6429C6.41687 17.6377 6.41787 17.6325 6.41804 17.6273C6.38774 17.1688 6.23355 13.9371 7.8258 13.1466L7.82563 13.1468C8.5671 12.7694 9.35961 12.5023 10.1783 12.3538C10.2978 12.3323 10.4207 12.3636 10.5154 12.4396L11.7365 13.4106C11.8907 13.5332 12.109 13.5332 12.2632 13.4106L13.4842 12.4396C13.579 12.3636 13.7019 12.3323 13.8214 12.3538C14.6401 12.5023 15.4326 12.7694 16.174 13.1468C17.7663 13.937 17.6119 17.1688 17.5818 17.6275C17.5818 17.6327 17.5828 17.6377 17.5828 17.643L17.5828 17.6429Z" fill="white"/>
</svg>
