<svg width="26" height="24" viewBox="0 0 26 24" fill="none" xmlns="http://www.w3.org/2000/svg">
<path d="M15.111 16.889C14.1297 16.889 13.3332 16.0925 13.3332 15.1112V13.3334C13.3332 12.3513 14.1297 11.5557 15.111 11.5557H25.7776V16.889H15.111ZM16.4443 12.9628C15.7084 12.9628 15.111 13.5602 15.111 14.2961C15.111 15.033 15.7084 15.6294 16.4443 15.6294C17.1812 15.6294 17.7776 15.033 17.7776 14.2961C17.7776 13.5602 17.1812 12.9628 16.4443 12.9628ZM12.4443 13.3334V15.1112C12.4443 16.5832 13.639 17.7778 15.111 17.7778H23.9998V21.3334C23.9998 22.8053 22.806 24 21.3332 24H2.66664C1.19466 24 0 22.8053 0 21.3334V4.44461C0 2.97181 1.19466 1.77797 2.66664 1.77797H11.2283L9.14029 2.64821H2.22327C1.48738 2.64821 0.889948 3.24564 0.889948 3.98153C0.889948 4.71742 1.48738 5.31485 2.22327 5.31485H23.9998V10.6669H15.111C13.639 10.6669 12.4443 11.8606 12.4443 13.3334ZM3.55654 7.11125H1.77878V8.88902H2.66766V8.00014H3.55654V7.11125ZM3.55654 9.7779H1.77878V11.5557H2.70418L2.66767 10.6668L3.55655 10.6854L3.55654 9.7779ZM3.55654 12.4445H1.77878V14.2223H2.6863L2.66765 13.3334H3.55653L3.55654 12.4445ZM3.55654 15.1112H1.77878V16.889H2.6863L2.66765 16.0001L3.55653 16.0187L3.55654 15.1112ZM3.55654 17.7778H1.77878V19.5556H2.66766V18.6667H3.55654V17.7778ZM3.55654 20.4445H1.77878V22.2222H2.6863L2.66765 21.352H3.55653L3.55654 20.4445ZM7.11207 4.38925L17.5562 0L19.5562 4.38925H7.11207ZM19.241 1.77776H21.3334C22.112 1.77776 22.8054 2.11645 23.2933 2.648H19.6658L19.241 1.77776Z" fill="white"/>
</svg>
